<svg xmlns="http://www.w3.org/2000/svg" width="264.545" height="53.978"><defs><style>.a{fill:#fff}.d{fill:none}.e{fill:#00a89f}</style></defs><path class="a" d="M14.05 11.608h-1.881v5.808h-2.024v-5.808H8.264V9.935h5.786zm6.248 0h-1.881v5.808h-2.024v-5.808H14.51V9.935h5.786z"/><path class="d" d="M39.2 4.409l.037-.09-.026.06z"/><path d="M36.916 0h-.091.064z" fill="#000001"/><path class="d" d="M39.2 4.409l.037-.09-.026.06zm0 0l-.008.02.006-.014z"/><path class="a" d="M14.578 50.06l.209-.511H6.121a1.693 1.693 0 01-1.692-1.691V6.12a1.693 1.693 0 011.692-1.691h19.5a2.773 2.773 0 002.472-1.72l1.1-2.707H6.121A6.128 6.128 0 000 6.122v41.736a6.128 6.128 0 006.121 6.12h3.347c2.998.004 4.578-2.757 5.11-3.918zM47.859 0h-3.341c-2.893 0-4.468 2.569-5.058 3.795v.02l-.215.5-.037.09v.006l-.006.014h8.667a1.693 1.693 0 011.691 1.691v41.742a1.693 1.693 0 01-1.691 1.691h-19.5a2.77 2.77 0 00-2.472 1.719l-1.1 2.707h23.062a6.128 6.128 0 006.12-6.12V6.12A6.128 6.128 0 0047.859 0z"/><path class="e" d="M39.21 4.382l.026-.06.215-.5v-.02c.59-1.226 2.165-3.795 5.058-3.795h-7.663a2.481 2.481 0 00-.321.02l-.075.011a2.739 2.739 0 00-.307.067l-.061.013a3.081 3.081 0 00-.335.128.656.656 0 00-.067.03c-.1.05-.2.1-.293.161-.011.008-.022.013-.033.022a2.717 2.717 0 00-.291.221l-.058.053a2.365 2.365 0 00-.241.249.061.061 0 00-.019.02 2.834 2.834 0 00-.216.3c-.017.025-.03.053-.047.081a2.6 2.6 0 00-.166.329l-.006.011-.451 1.11-.653 1.6-18.415 45.116v.014a.342.342 0 01-.014.036l-.147.359-.008.017-.039.085c-.532 1.161-2.112 3.918-5.11 3.918h7.686a2.769 2.769 0 002.551-1.722l1.1-2.707 18.383-45.12.008-.02z"/><path d="M39.2 4.409l-.008.02.006-.014z" fill="#44a59e"/><path class="a" d="M30.277 41.534h1.98c0 .693.253.957.869.957.562 0 .815-.22.815-.649 0-.517-.342-.759-1.354-.957-1.617-.308-2.222-.936-2.222-2.277 0-1.563.957-2.355 2.805-2.355 1.8 0 2.685.748 2.685 2.388h-1.97c0-.616-.23-.88-.748-.88-.495 0-.748.23-.748.638 0 .506.341.715 1.32.9 1.651.308 2.256.968 2.256 2.343 0 1.6-.935 2.354-2.883 2.354s-2.805-.735-2.805-2.462zm15.643-5.152l-1.727 7.481H42.11l-1.03-4.419-1.035 4.422H37.91l-1.726-7.484h2.079l.913 4.731 1.112-4.731h1.638l1.112 4.731.913-4.731z"/><path d="M238.41 5.074q-1.923-2.556-6.559-2.56a16.876 16.876 0 00-3.508.369 10.814 10.814 0 00-3.6 1.593 13.019 13.019 0 00-3.238 3.022 16.276 16.276 0 00-2.168 3.839 15.66 15.66 0 00-1 4.171c-.261 2.732.345 4.848 1.824 6.364s3.662 2.269 6.554 2.269a14.04 14.04 0 003.627-.465 12.059 12.059 0 003.7-1.84 13.025 13.025 0 003.305-3.354 14.771 14.771 0 001.915-3.822 16.159 16.159 0 00.715-3.287 8.713 8.713 0 00-1.567-6.299zm-4.574 6.27a14.646 14.646 0 01-.874 3.06 9.659 9.659 0 01-2.193 3.557 4.406 4.406 0 01-3.212 1.411 2.878 2.878 0 01-2.429-1.053 3.641 3.641 0 01-.652-2.655 14.183 14.183 0 01.973-3.658 9.213 9.213 0 012.193-3.436 4.349 4.349 0 013.075-1.294 3.038 3.038 0 012.423 1.03 3.909 3.909 0 01.695 3.038zM93.757 2.869l-1.533 5.138h-6.58l-4.827 15.775h-6.29L79.34 8.008h-6.295l1.548-5.138zm18.334 1.613q-1.225-1.609-4.211-1.613H96.348l-6.317 20.913h6.287l2.553-8.5h.332a2.044 2.044 0 011.326.427 8.667 8.667 0 011.4 3.117c.576 1.789 1.07 3.446 1.475 4.957h6.625q-1.961-7.2-3.714-8.786a8.016 8.016 0 004.912-2.348 7.291 7.291 0 001.878-4.288 5.3 5.3 0 00-1.014-3.879zm-4.994 4.336a2.771 2.771 0 01-1.954 2.267 16.021 16.021 0 01-3.892.288h-1.189l1.281-4.264h3.182a3.41 3.41 0 012.185.456 1.472 1.472 0 01.387 1.253zm25.359 14.964l-1.2-20.913h-6.679L111.11 23.782h6.744l1.909-3.426h6.61l-.054 3.426zm-10.217-7.858l4.217-7.618h.054l-.112 7.618zm38.208-13.055l-6.376 20.913h-5.861l-3.846-12.153h-.054l-3.69 12.153h-5.892l6.373-20.912h5.862l3.817 12.182h.055l3.72-12.182zm17.681 5.806l-5.893.329q.063-2.722-2.685-2.724a2.87 2.87 0 00-1.77.494 1.644 1.644 0 00-.713 1.175 1.177 1.177 0 00.392.95 7.376 7.376 0 002.182 1.144 27.814 27.814 0 013.57 1.729 6.111 6.111 0 012.143 2.11 5.127 5.127 0 01.6 3.24 6.818 6.818 0 01-1.316 3.4 8.656 8.656 0 01-3.1 2.6 11.765 11.765 0 01-5.386 1.023q-4.826 0-6.661-1.915a5.926 5.926 0 01-1.545-4.909l.047-.481 5.931-.416a3.5 3.5 0 00.572 2.758 2.944 2.944 0 002.241.805 3.669 3.669 0 002.338-.671 2.22 2.22 0 00.926-1.528 1.551 1.551 0 00-.385-1.182 6.241 6.241 0 00-2.321-1.27q-4.305-1.655-5.356-3.05a4.678 4.678 0 01-.858-3.366 6.375 6.375 0 011.294-3.282 7.242 7.242 0 013.055-2.305 11.6 11.6 0 014.537-.819q8.229 0 8.161 6.161zm10.661-5.806l-6.359 20.913h-6.346l6.36-20.912zm21.773 0l-1.532 5.138h-6.58l-4.825 15.775h-6.292l4.814-15.774h-6.295l1.546-5.138zm8.969 0l-6.359 20.913h-6.346l6.36-20.912zm45.014 0l-6.373 20.913h-5.862l-3.849-12.153h-.051l-3.692 12.153h-5.889l6.373-20.912h5.864l3.814 12.182h.056l3.719-12.182zM76.22 33.328v-4.531h-1.692v-.608h4.073v.608h-1.7v4.531zm14.831 0v-5.139h3.716v.608h-3.033v1.572h2.842v.605h-2.842v1.747h3.154v.607zm20.148-1.802l.681.173a2.309 2.309 0 01-.768 1.276 2.122 2.122 0 01-1.359.441 2.437 2.437 0 01-1.351-.338 2.124 2.124 0 01-.794-.979 3.47 3.47 0 01-.272-1.377 3.014 3.014 0 01.308-1.4 2.093 2.093 0 01.873-.91 2.55 2.55 0 011.247-.309 2.117 2.117 0 011.3.392 2.046 2.046 0 01.733 1.105l-.669.159a1.569 1.569 0 00-.522-.817 1.367 1.367 0 00-.854-.256 1.672 1.672 0 00-.99.282 1.522 1.522 0 00-.559.762 3.091 3.091 0 00-.161.989 3.128 3.128 0 00.192 1.145 1.434 1.434 0 00.593.731 1.676 1.676 0 00.873.241 1.477 1.477 0 00.966-.328 1.674 1.674 0 00.537-.981zm13.13 1.802v-5.139h.68V30.3h2.673v-2.111h.679v5.139h-.679v-2.421h-2.672v2.421zm16.481 0v-5.139h.7l2.7 4.036v-4.036h.65v5.139h-.7l-2.7-4.039v4.039zm21.115-3.946a2.2 2.2 0 00-.87-.947 2.474 2.474 0 00-1.284-.339 2.342 2.342 0 00-1.776.722 2.8 2.8 0 00-.684 2 2.929 2.929 0 00.293 1.286 2.242 2.242 0 00.865.954 2.424 2.424 0 001.3.352 2.576 2.576 0 001.25-.316 2.179 2.179 0 00.893-.938 2.991 2.991 0 00.316-1.394 3.114 3.114 0 00-.303-1.38zm-.9 2.91a1.741 1.741 0 01-2.516 0 2.044 2.044 0 01-.5-1.463 2.2 2.2 0 01.523-1.647 1.737 1.737 0 011.242-.5 1.666 1.666 0 01.915.257 1.631 1.631 0 01.625.725 2.671 2.671 0 01.209 1.1 2.184 2.184 0 01-.495 1.532zm13.65 1.036v-5.139h.681v4.533h2.532v.607zm20.277-3.946a2.2 2.2 0 00-.87-.947 2.467 2.467 0 00-1.285-.339 2.333 2.333 0 00-1.772.722 2.787 2.787 0 00-.687 2 2.917 2.917 0 00.295 1.286 2.231 2.231 0 00.866.954 2.413 2.413 0 001.3.352 2.566 2.566 0 001.248-.316 2.177 2.177 0 00.895-.938 3.015 3.015 0 00.313-1.394 3.087 3.087 0 00-.303-1.38zm-.9 2.91a1.743 1.743 0 01-2.518 0 2.065 2.065 0 01-.5-1.463 2.2 2.2 0 01.526-1.647 1.734 1.734 0 011.243-.5 1.675 1.675 0 01.915.257 1.621 1.621 0 01.62.725 2.637 2.637 0 01.214 1.1 2.194 2.194 0 01-.496 1.532zm16.226-.979v-.6h2.179v1.907a3.957 3.957 0 01-1.037.6 3.059 3.059 0 01-1.092.2 2.916 2.916 0 01-1.376-.324 2.159 2.159 0 01-.934-.938 2.945 2.945 0 01-.317-1.37 3.183 3.183 0 01.315-1.4 2.081 2.081 0 01.9-.967 2.844 2.844 0 011.355-.315 2.661 2.661 0 011.01.181 1.7 1.7 0 01.707.5 2.3 2.3 0 01.389.844l-.615.168a1.868 1.868 0 00-.289-.617 1.179 1.179 0 00-.489-.359 1.787 1.787 0 00-.708-.134 2.115 2.115 0 00-.808.14 1.573 1.573 0 00-.548.374 1.866 1.866 0 00-.323.509 2.679 2.679 0 00-.2 1.034 2.482 2.482 0 00.239 1.149 1.509 1.509 0 00.686.688 2.153 2.153 0 00.964.224 2.278 2.278 0 00.859-.169 2.2 2.2 0 00.638-.365v-.956zm14.632 2.015v-5.139h.679v5.139zm13.126 0v-5.139h3.716v.608h-3.042v1.572h2.845v.605h-2.845v1.747h3.155v.607zm16.284-1.646l.642-.054a1.377 1.377 0 00.213.629 1.107 1.107 0 00.515.4 1.893 1.893 0 00.791.154 1.924 1.924 0 00.685-.115.915.915 0 00.442-.318.742.742 0 00.149-.439.653.653 0 00-.144-.421.984.984 0 00-.459-.3 9.539 9.539 0 00-.917-.254 4.57 4.57 0 01-.99-.318 1.379 1.379 0 01-.55-.477 1.2 1.2 0 01-.183-.644 1.308 1.308 0 01.224-.725 1.358 1.358 0 01.645-.513 2.436 2.436 0 01.942-.176 2.563 2.563 0 011.007.184 1.462 1.462 0 01.672.542 1.547 1.547 0 01.253.81l-.652.049a1.041 1.041 0 00-.357-.735 1.363 1.363 0 00-.9-.25 1.442 1.442 0 00-.9.226.679.679 0 00-.282.545.594.594 0 00.2.457 2.744 2.744 0 001.026.366 7.15 7.15 0 011.137.324 1.618 1.618 0 01.664.525 1.293 1.293 0 01.212.734 1.383 1.383 0 01-.236.771 1.52 1.52 0 01-.674.566 2.343 2.343 0 01-.987.2 2.985 2.985 0 01-1.174-.2 1.651 1.651 0 01-.738-.615 1.716 1.716 0 01-.282-.922z" fill-rule="evenodd" fill="#fff"/><path class="e" d="M188.798 44.813h2.522c0 .883.322 1.218 1.106 1.218.715 0 1.037-.28 1.037-.826 0-.658-.434-.966-1.723-1.218-2.059-.393-2.829-1.191-2.829-2.9 0-1.989 1.218-3 3.572-3 2.3 0 3.418.953 3.418 3.04h-2.508c0-.785-.294-1.121-.952-1.121-.631 0-.953.294-.953.813 0 .644.434.911 1.681 1.148 2.1.393 2.871 1.233 2.871 2.984 0 2.031-1.19 3-3.669 3s-3.573-.939-3.573-3.138zm8.344-.784v-2.018c0-2.745 1.205-3.922 3.937-3.922s3.936 1.177 3.936 3.922v2.018c0 2.745-1.205 3.921-3.936 3.921s-3.937-1.176-3.937-3.921zm5.295-.057v-1.9c0-1.4-.336-1.864-1.358-1.864s-1.359.462-1.359 1.864v1.9c0 1.4.336 1.863 1.359 1.863s1.358-.462 1.358-1.863zm6.691-3.628v1.695h3.306v2.087h-3.306v3.656h-2.578v-9.525h6.584v2.087zm11.916.038h-2.395v7.4h-2.577v-7.4h-2.4v-2.125h7.368zm12.518-2.125l-2.2 9.525h-2.652l-1.316-5.63-1.317 5.63h-2.717l-2.2-9.525h2.65l1.163 6.024 1.414-6.024h2.087l1.415 6.024 1.163-6.024zm5.331 7.825h-2.549l-.463 1.695h-2.577l3-9.525h2.759l3 9.525h-2.7zm-2.045-1.988h1.541l-.77-3.1zm9.362.369h-.672v3.319h-2.578v-9.525h3.992c2.438 0 3.418.911 3.418 3.11 0 1.527-.476 2.437-1.6 2.843l1.947 3.572h-2.928zm-.672-2.017h1.134c.827 0 1.135-.309 1.135-1.079s-.308-1.092-1.135-1.092h-1.134zm13.11 3.25v2.086h-6.822v-9.525h6.684v2.087h-4.1v1.6h3.4v2.016h-3.4v1.738z"/></svg>